<mxfile host="app.diagrams.net" modified="2020-09-18T07:38:34.736Z" agent="5.0 (Windows NT 10.0; Win64; x64) AppleWebKit/537.36 (KHTML, like Gecko) Chrome/85.0.4183.102 Safari/537.36" etag="ejVNmi02mCk_6WP9bMJz" version="13.7.1" type="github">
  <diagram id="fS4oJLE-A3l-cCfl-SCH" name="第 1 页">
    <mxGraphModel dx="2331" dy="1861" grid="1" gridSize="10" guides="1" tooltips="1" connect="1" arrows="1" fold="1" page="1" pageScale="1" pageWidth="827" pageHeight="1169" math="0" shadow="0">
      <root>
        <mxCell id="0" />
        <mxCell id="1" parent="0" />
        <mxCell id="JKtVsh7TqP8X3cLODxb8-172" value="" style="rounded=0;whiteSpace=wrap;html=1;glass=0;sketch=0;gradientColor=#ffffff;" parent="1" vertex="1">
          <mxGeometry x="14" y="1240" width="1046" height="650" as="geometry" />
        </mxCell>
        <mxCell id="JKtVsh7TqP8X3cLODxb8-2" value="行情数据服务器" style="aspect=fixed;perimeter=ellipsePerimeter;html=1;align=center;shadow=0;dashed=0;spacingTop=3;image;image=img/lib/active_directory/database_server.svg;" parent="1" vertex="1">
          <mxGeometry x="-580" y="195" width="196.8" height="240" as="geometry" />
        </mxCell>
        <mxCell id="JKtVsh7TqP8X3cLODxb8-10" value="（第三方）&lt;br&gt;回测 / 模拟 / 研究" style="whiteSpace=wrap;html=1;aspect=fixed;" parent="1" vertex="1">
          <mxGeometry x="1310" y="515" width="240" height="240" as="geometry" />
        </mxCell>
        <mxCell id="JKtVsh7TqP8X3cLODxb8-138" style="edgeStyle=orthogonalEdgeStyle;curved=1;sketch=0;orthogonalLoop=1;jettySize=auto;html=1;entryX=1;entryY=0.5;entryDx=0;entryDy=0;entryPerimeter=0;strokeWidth=1;" parent="1" source="JKtVsh7TqP8X3cLODxb8-57" target="JKtVsh7TqP8X3cLODxb8-59" edge="1">
          <mxGeometry relative="1" as="geometry" />
        </mxCell>
        <mxCell id="JKtVsh7TqP8X3cLODxb8-57" value="Internet" style="aspect=fixed;perimeter=ellipsePerimeter;html=1;align=center;shadow=0;dashed=0;spacingTop=3;image;image=img/lib/active_directory/internet_globe.svg;glass=0;sketch=0;" parent="1" vertex="1">
          <mxGeometry x="1280" y="100" width="130" height="130" as="geometry" />
        </mxCell>
        <mxCell id="JKtVsh7TqP8X3cLODxb8-228" style="edgeStyle=orthogonalEdgeStyle;curved=1;sketch=0;orthogonalLoop=1;jettySize=auto;html=1;entryX=1;entryY=0;entryDx=-2.9;entryDy=2.9;entryPerimeter=0;strokeWidth=1;" parent="1" source="JKtVsh7TqP8X3cLODxb8-88" target="JKtVsh7TqP8X3cLODxb8-90" edge="1">
          <mxGeometry relative="1" as="geometry">
            <Array as="points">
              <mxPoint x="700" y="1565" />
              <mxPoint x="700" y="1680" />
              <mxPoint x="573" y="1680" />
            </Array>
          </mxGeometry>
        </mxCell>
        <mxCell id="JKtVsh7TqP8X3cLODxb8-88" value="(history tick)&lt;br&gt;Bcolz" style="shadow=0;dashed=0;html=1;strokeColor=none;fillColor=#4495D1;labelPosition=center;verticalLabelPosition=bottom;verticalAlign=top;align=center;outlineConnect=0;shape=mxgraph.veeam.local_disk;" parent="1" vertex="1">
          <mxGeometry x="840" y="1534" width="59" height="62" as="geometry" />
        </mxCell>
        <mxCell id="JKtVsh7TqP8X3cLODxb8-90" value="&lt;b&gt;&lt;font style=&quot;font-size: 22px&quot;&gt;engine&lt;/font&gt;&lt;/b&gt;" style="html=1;outlineConnect=0;whiteSpace=wrap;fillColor=#99ffff;shape=mxgraph.archimate3.application;appType=proc;archiType=rounded;" parent="1" vertex="1">
          <mxGeometry x="190" y="1740" width="386" height="100" as="geometry" />
        </mxCell>
        <mxCell id="JKtVsh7TqP8X3cLODxb8-164" value="" style="group" parent="1" vertex="1" connectable="0">
          <mxGeometry x="14" y="755" width="1050" height="410" as="geometry" />
        </mxCell>
        <mxCell id="JKtVsh7TqP8X3cLODxb8-142" value="" style="group;" parent="JKtVsh7TqP8X3cLODxb8-164" vertex="1" connectable="0">
          <mxGeometry width="1050" height="410" as="geometry" />
        </mxCell>
        <mxCell id="JKtVsh7TqP8X3cLODxb8-120" value="" style="rounded=0;whiteSpace=wrap;html=1;glass=0;sketch=0;fillColor=#f5f5f5;strokeColor=#666666;fontColor=#333333;" parent="JKtVsh7TqP8X3cLODxb8-142" vertex="1">
          <mxGeometry y="-5" width="1050" height="410" as="geometry" />
        </mxCell>
        <mxCell id="JKtVsh7TqP8X3cLODxb8-123" value="" style="rounded=0;whiteSpace=wrap;html=1;glass=0;dashed=1;sketch=0;" parent="JKtVsh7TqP8X3cLODxb8-142" vertex="1">
          <mxGeometry x="20" y="58" width="480" height="330" as="geometry" />
        </mxCell>
        <mxCell id="JKtVsh7TqP8X3cLODxb8-149" value="" style="rounded=0;whiteSpace=wrap;html=1;glass=0;dashed=1;sketch=0;fillColor=#cce5ff;strokeColor=#36393d;" parent="JKtVsh7TqP8X3cLODxb8-142" vertex="1">
          <mxGeometry x="36" y="66" width="194" height="120" as="geometry" />
        </mxCell>
        <mxCell id="JKtVsh7TqP8X3cLODxb8-72" value="Bcolz" style="shadow=0;dashed=0;html=1;strokeColor=none;fillColor=#4495D1;labelPosition=center;verticalLabelPosition=bottom;verticalAlign=top;align=center;outlineConnect=0;shape=mxgraph.veeam.local_disk;" parent="JKtVsh7TqP8X3cLODxb8-142" vertex="1">
          <mxGeometry x="343" y="260" width="58" height="70" as="geometry" />
        </mxCell>
        <mxCell id="JKtVsh7TqP8X3cLODxb8-78" value="SQLite / Pickle" style="shadow=0;dashed=0;html=1;strokeColor=none;fillColor=#4495D1;labelPosition=center;verticalLabelPosition=bottom;verticalAlign=top;align=center;outlineConnect=0;shape=mxgraph.veeam.local_disk;" parent="JKtVsh7TqP8X3cLODxb8-142" vertex="1">
          <mxGeometry x="176" y="260" width="59" height="62" as="geometry" />
        </mxCell>
        <mxCell id="JKtVsh7TqP8X3cLODxb8-124" value="&lt;b&gt;&lt;font style=&quot;font-size: 14px&quot;&gt;tr-data00&lt;/font&gt;&lt;/b&gt;" style="text;html=1;strokeColor=none;fillColor=none;align=center;verticalAlign=middle;whiteSpace=wrap;rounded=0;glass=0;sketch=0;" parent="JKtVsh7TqP8X3cLODxb8-142" vertex="1">
          <mxGeometry x="404" y="352" width="70" height="22" as="geometry" />
        </mxCell>
        <mxCell id="JKtVsh7TqP8X3cLODxb8-125" value="(与 tr-data00 同样的配置)" style="rounded=0;whiteSpace=wrap;html=1;glass=0;sketch=0;dashed=1;" parent="JKtVsh7TqP8X3cLODxb8-142" vertex="1">
          <mxGeometry x="690" y="58" width="320" height="320" as="geometry" />
        </mxCell>
        <mxCell id="JKtVsh7TqP8X3cLODxb8-126" value="&lt;b&gt;&lt;font style=&quot;font-size: 14px&quot;&gt;tr-data01&lt;/font&gt;&lt;/b&gt;" style="text;html=1;strokeColor=none;fillColor=none;align=center;verticalAlign=middle;whiteSpace=wrap;rounded=0;glass=0;dashed=1;sketch=0;" parent="JKtVsh7TqP8X3cLODxb8-142" vertex="1">
          <mxGeometry x="930" y="340" width="70" height="20" as="geometry" />
        </mxCell>
        <mxCell id="JKtVsh7TqP8X3cLODxb8-127" value="副本" style="shape=singleArrow;whiteSpace=wrap;html=1;glass=0;dashed=1;sketch=0;" parent="JKtVsh7TqP8X3cLODxb8-142" vertex="1">
          <mxGeometry x="550" y="200" width="100" height="60" as="geometry" />
        </mxCell>
        <mxCell id="JKtVsh7TqP8X3cLODxb8-122" style="edgeStyle=orthogonalEdgeStyle;curved=1;sketch=0;orthogonalLoop=1;jettySize=auto;html=1;strokeWidth=1;" parent="JKtVsh7TqP8X3cLODxb8-142" source="JKtVsh7TqP8X3cLODxb8-20" target="JKtVsh7TqP8X3cLODxb8-72" edge="1">
          <mxGeometry relative="1" as="geometry" />
        </mxCell>
        <mxCell id="JKtVsh7TqP8X3cLODxb8-19" value="&lt;b&gt;&lt;font style=&quot;font-size: 14px&quot;&gt;market_to_redis&lt;/font&gt;&lt;/b&gt;" style="html=1;outlineConnect=0;whiteSpace=wrap;fillColor=#99ffff;shape=mxgraph.archimate3.application;appType=proc;archiType=rounded;" parent="JKtVsh7TqP8X3cLODxb8-142" vertex="1">
          <mxGeometry x="55.46000000000001" y="77.5" width="150" height="75" as="geometry" />
        </mxCell>
        <mxCell id="JKtVsh7TqP8X3cLODxb8-148" style="edgeStyle=orthogonalEdgeStyle;curved=1;sketch=0;orthogonalLoop=1;jettySize=auto;html=1;strokeWidth=1;" parent="JKtVsh7TqP8X3cLODxb8-142" source="JKtVsh7TqP8X3cLODxb8-20" target="JKtVsh7TqP8X3cLODxb8-78" edge="1">
          <mxGeometry relative="1" as="geometry">
            <Array as="points">
              <mxPoint x="372" y="201" />
              <mxPoint x="206" y="201" />
            </Array>
          </mxGeometry>
        </mxCell>
        <mxCell id="JKtVsh7TqP8X3cLODxb8-20" value="&lt;b&gt;&lt;font style=&quot;font-size: 14px&quot;&gt;init_base, update_bcolz&lt;/font&gt;&lt;/b&gt;" style="html=1;outlineConnect=0;whiteSpace=wrap;fillColor=#99ffff;shape=mxgraph.archimate3.application;appType=proc;archiType=rounded;" parent="JKtVsh7TqP8X3cLODxb8-142" vertex="1">
          <mxGeometry x="284.73" y="80" width="174.54" height="70" as="geometry" />
        </mxCell>
        <mxCell id="JKtVsh7TqP8X3cLODxb8-146" value="&lt;b&gt;&lt;font style=&quot;font-size: 30px&quot;&gt;引擎数据&lt;/font&gt;&lt;/b&gt;" style="text;html=1;strokeColor=none;fillColor=none;align=center;verticalAlign=middle;whiteSpace=wrap;rounded=0;glass=0;dashed=1;sketch=0;" parent="JKtVsh7TqP8X3cLODxb8-142" vertex="1">
          <mxGeometry x="450" y="17" width="150" height="20" as="geometry" />
        </mxCell>
        <mxCell id="JKtVsh7TqP8X3cLODxb8-150" value="&lt;b&gt;&lt;font style=&quot;font-size: 14px&quot;&gt;jtpmarkettoredis&lt;/font&gt;&lt;/b&gt;" style="text;html=1;strokeColor=none;fillColor=none;align=center;verticalAlign=middle;whiteSpace=wrap;rounded=0;glass=0;dashed=1;sketch=0;" parent="JKtVsh7TqP8X3cLODxb8-142" vertex="1">
          <mxGeometry x="90" y="161" width="86" height="20" as="geometry" />
        </mxCell>
        <mxCell id="JKtVsh7TqP8X3cLODxb8-165" value="" style="group" parent="1" vertex="1" connectable="0">
          <mxGeometry x="10" y="-10" width="1050" height="650" as="geometry" />
        </mxCell>
        <mxCell id="JKtVsh7TqP8X3cLODxb8-117" value="" style="rounded=0;whiteSpace=wrap;html=1;glass=0;sketch=0;fillColor=#f5f5f5;strokeColor=#666666;fontColor=#333333;" parent="JKtVsh7TqP8X3cLODxb8-165" vertex="1">
          <mxGeometry width="1050" height="650" as="geometry" />
        </mxCell>
        <mxCell id="JKtVsh7TqP8X3cLODxb8-158" value="" style="rounded=0;whiteSpace=wrap;html=1;glass=0;dashed=1;sketch=0;fillColor=#cce5ff;strokeColor=#36393d;" parent="JKtVsh7TqP8X3cLODxb8-165" vertex="1">
          <mxGeometry x="305" y="90" width="195" height="130" as="geometry" />
        </mxCell>
        <mxCell id="JKtVsh7TqP8X3cLODxb8-154" value="" style="rounded=0;whiteSpace=wrap;html=1;glass=0;dashed=1;sketch=0;fillColor=#cce5ff;strokeColor=#36393d;" parent="JKtVsh7TqP8X3cLODxb8-165" vertex="1">
          <mxGeometry x="63" y="90" width="196" height="131" as="geometry" />
        </mxCell>
        <mxCell id="JKtVsh7TqP8X3cLODxb8-171" style="edgeStyle=orthogonalEdgeStyle;curved=1;sketch=0;orthogonalLoop=1;jettySize=auto;html=1;entryX=0;entryY=0;entryDx=0;entryDy=0;strokeWidth=1;" parent="JKtVsh7TqP8X3cLODxb8-165" source="JKtVsh7TqP8X3cLODxb8-12" target="JKtVsh7TqP8X3cLODxb8-64" edge="1">
          <mxGeometry relative="1" as="geometry" />
        </mxCell>
        <mxCell id="JKtVsh7TqP8X3cLODxb8-12" value="(day/minute market)&lt;br&gt;SSDB" style="fontColor=#0066CC;verticalAlign=top;verticalLabelPosition=bottom;labelPosition=center;align=center;html=1;outlineConnect=0;fillColor=#CCCCCC;strokeColor=#6881B3;gradientColor=none;gradientDirection=north;strokeWidth=2;shape=mxgraph.networks.storage;" parent="JKtVsh7TqP8X3cLODxb8-165" vertex="1">
          <mxGeometry x="331" y="305" width="69" height="72" as="geometry" />
        </mxCell>
        <mxCell id="JKtVsh7TqP8X3cLODxb8-13" value="(tick)Redis" style="fontColor=#0066CC;verticalAlign=top;verticalLabelPosition=bottom;labelPosition=center;align=center;html=1;outlineConnect=0;fillColor=#CCCCCC;strokeColor=#6881B3;gradientColor=none;gradientDirection=north;strokeWidth=2;shape=mxgraph.networks.storage;sketch=0;" parent="JKtVsh7TqP8X3cLODxb8-165" vertex="1">
          <mxGeometry x="496" y="305" width="69" height="72" as="geometry" />
        </mxCell>
        <mxCell id="JKtVsh7TqP8X3cLODxb8-14" value="MySQL" style="fontColor=#0066CC;verticalAlign=top;verticalLabelPosition=bottom;labelPosition=center;align=center;html=1;outlineConnect=0;fillColor=#CCCCCC;strokeColor=#6881B3;gradientColor=none;gradientDirection=north;strokeWidth=2;shape=mxgraph.networks.storage;" parent="JKtVsh7TqP8X3cLODxb8-165" vertex="1">
          <mxGeometry x="900" y="300" width="69" height="72" as="geometry" />
        </mxCell>
        <mxCell id="JKtVsh7TqP8X3cLODxb8-18" value="&lt;b&gt;&lt;font style=&quot;font-size: 14px&quot;&gt;market_to_shm&lt;/font&gt;&lt;/b&gt;&lt;br&gt;（常驻守护进程）" style="html=1;outlineConnect=0;whiteSpace=wrap;fillColor=#99ffff;shape=mxgraph.archimate3.application;appType=proc;archiType=rounded;" parent="JKtVsh7TqP8X3cLODxb8-165" vertex="1">
          <mxGeometry x="90" y="130" width="150" height="75" as="geometry" />
        </mxCell>
        <mxCell id="JKtVsh7TqP8X3cLODxb8-26" value="&lt;b style=&quot;font-size: 14px&quot;&gt;shm_to_ssdb&lt;br&gt;&lt;/b&gt;（早 8:00，晚 8:00 进程启动，在所有时间点处理完后退出）" style="html=1;outlineConnect=0;whiteSpace=wrap;fillColor=#99ffff;shape=mxgraph.archimate3.application;appType=proc;archiType=rounded;" parent="JKtVsh7TqP8X3cLODxb8-165" vertex="1">
          <mxGeometry x="329" y="130" width="150" height="75" as="geometry" />
        </mxCell>
        <mxCell id="JKtVsh7TqP8X3cLODxb8-27" value="&lt;b&gt;&lt;font style=&quot;font-size: 14px&quot;&gt;redis_to_bcolz&lt;/font&gt;&lt;/b&gt;" style="html=1;outlineConnect=0;whiteSpace=wrap;fillColor=#99ffff;shape=mxgraph.archimate3.application;appType=proc;archiType=rounded;" parent="JKtVsh7TqP8X3cLODxb8-165" vertex="1">
          <mxGeometry x="564.5" y="130" width="150" height="70" as="geometry" />
        </mxCell>
        <mxCell id="JKtVsh7TqP8X3cLODxb8-153" style="edgeStyle=orthogonalEdgeStyle;curved=1;sketch=0;orthogonalLoop=1;jettySize=auto;html=1;entryX=0;entryY=0.5;entryDx=0;entryDy=0;entryPerimeter=0;strokeWidth=1;" parent="JKtVsh7TqP8X3cLODxb8-165" source="JKtVsh7TqP8X3cLODxb8-29" target="JKtVsh7TqP8X3cLODxb8-26" edge="1">
          <mxGeometry relative="1" as="geometry" />
        </mxCell>
        <mxCell id="JKtVsh7TqP8X3cLODxb8-29" value="(day/minute)SHM" style="shadow=0;dashed=0;html=1;strokeColor=none;fillColor=#4495D1;labelPosition=center;verticalLabelPosition=bottom;verticalAlign=top;align=center;outlineConnect=0;shape=mxgraph.veeam.local_disk;" parent="JKtVsh7TqP8X3cLODxb8-165" vertex="1">
          <mxGeometry x="181" y="315" width="59" height="62" as="geometry" />
        </mxCell>
        <mxCell id="JKtVsh7TqP8X3cLODxb8-48" value="" style="curved=1;endArrow=classic;html=1;strokeWidth=1;" parent="JKtVsh7TqP8X3cLODxb8-165" source="JKtVsh7TqP8X3cLODxb8-18" target="JKtVsh7TqP8X3cLODxb8-29" edge="1">
          <mxGeometry width="50" height="50" relative="1" as="geometry">
            <mxPoint x="210" y="210" as="sourcePoint" />
            <mxPoint x="160" y="260" as="targetPoint" />
            <Array as="points">
              <mxPoint x="210" y="260" />
            </Array>
          </mxGeometry>
        </mxCell>
        <mxCell id="JKtVsh7TqP8X3cLODxb8-109" value="&lt;font style=&quot;font-size: 14px&quot;&gt;每 0.5 秒写一次&lt;/font&gt;" style="edgeLabel;html=1;align=center;verticalAlign=middle;resizable=0;points=[];" parent="JKtVsh7TqP8X3cLODxb8-48" vertex="1" connectable="0">
          <mxGeometry x="-0.0847" relative="1" as="geometry">
            <mxPoint as="offset" />
          </mxGeometry>
        </mxCell>
        <mxCell id="JKtVsh7TqP8X3cLODxb8-162" style="edgeStyle=orthogonalEdgeStyle;curved=1;sketch=0;orthogonalLoop=1;jettySize=auto;html=1;entryX=0;entryY=0.75;entryDx=0;entryDy=0;entryPerimeter=0;strokeWidth=1;" parent="JKtVsh7TqP8X3cLODxb8-165" source="JKtVsh7TqP8X3cLODxb8-13" target="JKtVsh7TqP8X3cLODxb8-27" edge="1">
          <mxGeometry relative="1" as="geometry" />
        </mxCell>
        <mxCell id="JKtVsh7TqP8X3cLODxb8-53" value="" style="curved=1;endArrow=classic;html=1;strokeWidth=1;exitX=0.5;exitY=1;exitDx=0;exitDy=0;exitPerimeter=0;" parent="JKtVsh7TqP8X3cLODxb8-165" source="JKtVsh7TqP8X3cLODxb8-26" target="JKtVsh7TqP8X3cLODxb8-12" edge="1">
          <mxGeometry width="50" height="50" relative="1" as="geometry">
            <mxPoint x="450" y="210" as="sourcePoint" />
            <mxPoint x="400" y="260" as="targetPoint" />
            <Array as="points">
              <mxPoint x="400" y="260" />
            </Array>
          </mxGeometry>
        </mxCell>
        <mxCell id="JKtVsh7TqP8X3cLODxb8-110" value="&lt;font style=&quot;font-size: 14px&quot;&gt;每 20 秒写一次&lt;/font&gt;" style="edgeLabel;html=1;align=center;verticalAlign=middle;resizable=0;points=[];" parent="JKtVsh7TqP8X3cLODxb8-53" vertex="1" connectable="0">
          <mxGeometry x="-0.2771" y="-13" relative="1" as="geometry">
            <mxPoint x="-14.84" y="30.06" as="offset" />
          </mxGeometry>
        </mxCell>
        <mxCell id="JKtVsh7TqP8X3cLODxb8-56" value="" style="curved=1;endArrow=classic;html=1;strokeWidth=1;exitX=0.5;exitY=1;exitDx=0;exitDy=0;exitPerimeter=0;entryX=0.5;entryY=0;entryDx=0;entryDy=0;" parent="JKtVsh7TqP8X3cLODxb8-165" source="JKtVsh7TqP8X3cLODxb8-27" target="JKtVsh7TqP8X3cLODxb8-81" edge="1">
          <mxGeometry width="50" height="50" relative="1" as="geometry">
            <mxPoint x="600" y="230" as="sourcePoint" />
            <mxPoint x="540" y="320" as="targetPoint" />
            <Array as="points" />
          </mxGeometry>
        </mxCell>
        <mxCell id="JKtVsh7TqP8X3cLODxb8-137" style="edgeStyle=orthogonalEdgeStyle;curved=1;sketch=0;orthogonalLoop=1;jettySize=auto;html=1;strokeWidth=1;" parent="JKtVsh7TqP8X3cLODxb8-165" source="JKtVsh7TqP8X3cLODxb8-59" target="JKtVsh7TqP8X3cLODxb8-14" edge="1">
          <mxGeometry relative="1" as="geometry" />
        </mxCell>
        <mxCell id="JKtVsh7TqP8X3cLODxb8-59" value="&lt;font style=&quot;font-size: 14px&quot;&gt;&lt;b&gt;other&lt;/b&gt;&lt;/font&gt;" style="html=1;outlineConnect=0;whiteSpace=wrap;fillColor=#99ffff;shape=mxgraph.archimate3.application;appType=proc;archiType=rounded;" parent="JKtVsh7TqP8X3cLODxb8-165" vertex="1">
          <mxGeometry x="790" y="130" width="150" height="70" as="geometry" />
        </mxCell>
        <mxCell id="JKtVsh7TqP8X3cLODxb8-166" style="edgeStyle=orthogonalEdgeStyle;curved=1;sketch=0;orthogonalLoop=1;jettySize=auto;html=1;entryX=1;entryY=0.5;entryDx=0;entryDy=0;strokeWidth=1;" parent="JKtVsh7TqP8X3cLODxb8-165" source="JKtVsh7TqP8X3cLODxb8-62" target="JKtVsh7TqP8X3cLODxb8-64" edge="1">
          <mxGeometry relative="1" as="geometry">
            <Array as="points">
              <mxPoint x="720" y="336" />
              <mxPoint x="720" y="545" />
            </Array>
          </mxGeometry>
        </mxCell>
        <mxCell id="JKtVsh7TqP8X3cLODxb8-62" value="(basic)SSDB" style="fontColor=#0066CC;verticalAlign=top;verticalLabelPosition=bottom;labelPosition=center;align=center;html=1;outlineConnect=0;fillColor=#CCCCCC;strokeColor=#6881B3;gradientColor=none;gradientDirection=north;strokeWidth=2;shape=mxgraph.networks.storage;" parent="JKtVsh7TqP8X3cLODxb8-165" vertex="1">
          <mxGeometry x="760" y="300" width="69" height="72" as="geometry" />
        </mxCell>
        <mxCell id="JKtVsh7TqP8X3cLODxb8-136" style="edgeStyle=orthogonalEdgeStyle;curved=1;sketch=0;orthogonalLoop=1;jettySize=auto;html=1;strokeWidth=1;" parent="JKtVsh7TqP8X3cLODxb8-165" source="JKtVsh7TqP8X3cLODxb8-59" target="JKtVsh7TqP8X3cLODxb8-62" edge="1">
          <mxGeometry relative="1" as="geometry" />
        </mxCell>
        <mxCell id="JKtVsh7TqP8X3cLODxb8-64" value="Nginx Server&lt;br&gt;" style="aspect=fixed;perimeter=ellipsePerimeter;html=1;align=center;shadow=0;dashed=0;spacingTop=3;image;image=img/lib/active_directory/web_server.svg;glass=0;sketch=0;" parent="JKtVsh7TqP8X3cLODxb8-165" vertex="1">
          <mxGeometry x="485.5" y="496" width="79" height="98.75" as="geometry" />
        </mxCell>
        <mxCell id="JKtVsh7TqP8X3cLODxb8-81" value="(tick)Bcolz" style="shape=image;html=1;verticalAlign=top;verticalLabelPosition=bottom;labelBackgroundColor=#ffffff;imageAspect=0;aspect=fixed;image=https://cdn2.iconfinder.com/data/icons/stilllife/48x48/filesystems/gnome-fs-nfs.png;glass=0;sketch=0;" parent="JKtVsh7TqP8X3cLODxb8-165" vertex="1">
          <mxGeometry x="626" y="305" width="74" height="74" as="geometry" />
        </mxCell>
        <mxCell id="JKtVsh7TqP8X3cLODxb8-119" value="&lt;b&gt;&lt;font style=&quot;font-size: 30px&quot;&gt;数据源&lt;/font&gt;&lt;/b&gt;" style="text;html=1;strokeColor=none;fillColor=none;align=center;verticalAlign=middle;whiteSpace=wrap;rounded=0;glass=0;dashed=1;sketch=0;" parent="JKtVsh7TqP8X3cLODxb8-165" vertex="1">
          <mxGeometry x="450" y="20" width="150" height="40" as="geometry" />
        </mxCell>
        <mxCell id="JKtVsh7TqP8X3cLODxb8-157" value="&lt;b&gt;&lt;font style=&quot;font-size: 14px&quot;&gt;updatol&lt;/font&gt;&lt;/b&gt;" style="text;html=1;strokeColor=none;fillColor=none;align=center;verticalAlign=middle;whiteSpace=wrap;rounded=0;glass=0;dashed=1;sketch=0;" parent="JKtVsh7TqP8X3cLODxb8-165" vertex="1">
          <mxGeometry x="126" y="100" width="70" height="20" as="geometry" />
        </mxCell>
        <mxCell id="JKtVsh7TqP8X3cLODxb8-159" value="&lt;b&gt;&lt;font style=&quot;font-size: 14px&quot;&gt;shmtossdb&lt;/font&gt;&lt;/b&gt;" style="text;html=1;strokeColor=none;fillColor=none;align=center;verticalAlign=middle;whiteSpace=wrap;rounded=0;glass=0;dashed=1;sketch=0;" parent="JKtVsh7TqP8X3cLODxb8-165" vertex="1">
          <mxGeometry x="383" y="100" width="40" height="20" as="geometry" />
        </mxCell>
        <mxCell id="JKtVsh7TqP8X3cLODxb8-163" style="edgeStyle=orthogonalEdgeStyle;curved=1;sketch=0;orthogonalLoop=1;jettySize=auto;html=1;entryX=0.75;entryY=0;entryDx=0;entryDy=0;entryPerimeter=0;strokeWidth=1;" parent="1" source="JKtVsh7TqP8X3cLODxb8-14" target="JKtVsh7TqP8X3cLODxb8-20" edge="1">
          <mxGeometry relative="1" as="geometry">
            <Array as="points">
              <mxPoint x="945" y="650" />
              <mxPoint x="430" y="650" />
            </Array>
          </mxGeometry>
        </mxCell>
        <mxCell id="JKtVsh7TqP8X3cLODxb8-143" style="edgeStyle=orthogonalEdgeStyle;curved=1;sketch=0;orthogonalLoop=1;jettySize=auto;html=1;entryX=0.25;entryY=0;entryDx=0;entryDy=0;entryPerimeter=0;strokeWidth=1;" parent="1" source="JKtVsh7TqP8X3cLODxb8-64" target="JKtVsh7TqP8X3cLODxb8-20" edge="1">
          <mxGeometry relative="1" as="geometry" />
        </mxCell>
        <mxCell id="JKtVsh7TqP8X3cLODxb8-169" style="edgeStyle=orthogonalEdgeStyle;curved=1;sketch=0;orthogonalLoop=1;jettySize=auto;html=1;entryX=0;entryY=0.86;entryDx=0;entryDy=0;entryPerimeter=0;strokeWidth=1;" parent="1" source="JKtVsh7TqP8X3cLODxb8-19" target="JKtVsh7TqP8X3cLODxb8-13" edge="1">
          <mxGeometry relative="1" as="geometry">
            <Array as="points">
              <mxPoint x="150" y="450" />
              <mxPoint x="506" y="450" />
            </Array>
          </mxGeometry>
        </mxCell>
        <mxCell id="JKtVsh7TqP8X3cLODxb8-231" style="edgeStyle=orthogonalEdgeStyle;curved=1;sketch=0;orthogonalLoop=1;jettySize=auto;html=1;entryX=0.25;entryY=0;entryDx=0;entryDy=0;entryPerimeter=0;strokeWidth=1;" parent="1" source="JKtVsh7TqP8X3cLODxb8-85" target="JKtVsh7TqP8X3cLODxb8-90" edge="1">
          <mxGeometry relative="1" as="geometry">
            <Array as="points">
              <mxPoint x="60" y="1565" />
              <mxPoint x="60" y="1680" />
              <mxPoint x="287" y="1680" />
            </Array>
          </mxGeometry>
        </mxCell>
        <mxCell id="JKtVsh7TqP8X3cLODxb8-85" value="( day / minute)&lt;br&gt;SHM" style="shadow=0;dashed=0;html=1;strokeColor=none;fillColor=#4495D1;labelPosition=center;verticalLabelPosition=bottom;verticalAlign=top;align=center;outlineConnect=0;shape=mxgraph.veeam.local_disk;" parent="1" vertex="1">
          <mxGeometry x="100" y="1534" width="59" height="62" as="geometry" />
        </mxCell>
        <mxCell id="JKtVsh7TqP8X3cLODxb8-214" style="edgeStyle=orthogonalEdgeStyle;curved=1;sketch=0;orthogonalLoop=1;jettySize=auto;html=1;strokeWidth=1;" parent="1" source="JKtVsh7TqP8X3cLODxb8-86" target="JKtVsh7TqP8X3cLODxb8-206" edge="1">
          <mxGeometry relative="1" as="geometry">
            <Array as="points">
              <mxPoint x="370" y="1565" />
            </Array>
          </mxGeometry>
        </mxCell>
        <mxCell id="JKtVsh7TqP8X3cLODxb8-233" style="edgeStyle=orthogonalEdgeStyle;curved=1;sketch=0;orthogonalLoop=1;jettySize=auto;html=1;entryX=0.75;entryY=0;entryDx=0;entryDy=0;entryPerimeter=0;strokeWidth=1;" parent="1" source="JKtVsh7TqP8X3cLODxb8-86" target="JKtVsh7TqP8X3cLODxb8-90" edge="1">
          <mxGeometry relative="1" as="geometry">
            <Array as="points">
              <mxPoint x="470" y="1565" />
              <mxPoint x="470" y="1740" />
            </Array>
          </mxGeometry>
        </mxCell>
        <mxCell id="JKtVsh7TqP8X3cLODxb8-86" value="(history day / minute)&lt;br&gt;Bcolz" style="shadow=0;dashed=0;html=1;strokeColor=none;fillColor=#4495D1;labelPosition=center;verticalLabelPosition=bottom;verticalAlign=top;align=center;outlineConnect=0;shape=mxgraph.veeam.local_disk;" parent="1" vertex="1">
          <mxGeometry x="545.5" y="1534" width="59" height="62" as="geometry" />
        </mxCell>
        <mxCell id="JKtVsh7TqP8X3cLODxb8-230" style="edgeStyle=orthogonalEdgeStyle;curved=1;sketch=0;orthogonalLoop=1;jettySize=auto;html=1;strokeWidth=1;" parent="1" source="JKtVsh7TqP8X3cLODxb8-87" target="JKtVsh7TqP8X3cLODxb8-90" edge="1">
          <mxGeometry relative="1" as="geometry">
            <Array as="points">
              <mxPoint x="250" y="1565" />
              <mxPoint x="250" y="1668" />
              <mxPoint x="383" y="1668" />
            </Array>
          </mxGeometry>
        </mxCell>
        <mxCell id="JKtVsh7TqP8X3cLODxb8-87" value="（basic）&lt;br&gt;SQLite / Pickle" style="shadow=0;dashed=0;html=1;strokeColor=none;fillColor=#4495D1;labelPosition=center;verticalLabelPosition=bottom;verticalAlign=top;align=center;outlineConnect=0;shape=mxgraph.veeam.local_disk;" parent="1" vertex="1">
          <mxGeometry x="321" y="1534" width="59" height="62" as="geometry" />
        </mxCell>
        <mxCell id="JKtVsh7TqP8X3cLODxb8-215" style="edgeStyle=orthogonalEdgeStyle;curved=1;sketch=0;orthogonalLoop=1;jettySize=auto;html=1;strokeWidth=1;" parent="1" source="JKtVsh7TqP8X3cLODxb8-204" target="JKtVsh7TqP8X3cLODxb8-85" edge="1">
          <mxGeometry relative="1" as="geometry" />
        </mxCell>
        <mxCell id="JKtVsh7TqP8X3cLODxb8-204" value="&lt;b&gt;&lt;font style=&quot;font-size: 14px&quot;&gt;market_to_shm&lt;/font&gt;&lt;/b&gt;" style="html=1;outlineConnect=0;whiteSpace=wrap;fillColor=#99ffff;shape=mxgraph.archimate3.application;appType=proc;archiType=rounded;" parent="1" vertex="1">
          <mxGeometry x="54.5" y="1350" width="150" height="70" as="geometry" />
        </mxCell>
        <mxCell id="JKtVsh7TqP8X3cLODxb8-213" style="edgeStyle=orthogonalEdgeStyle;curved=1;sketch=0;orthogonalLoop=1;jettySize=auto;html=1;strokeWidth=1;" parent="1" source="JKtVsh7TqP8X3cLODxb8-206" target="JKtVsh7TqP8X3cLODxb8-85" edge="1">
          <mxGeometry relative="1" as="geometry">
            <Array as="points">
              <mxPoint x="320" y="1565" />
            </Array>
          </mxGeometry>
        </mxCell>
        <mxCell id="JKtVsh7TqP8X3cLODxb8-206" value="&lt;b&gt;&lt;font style=&quot;font-size: 14px&quot;&gt;fill_shm / create_shm&lt;/font&gt;&lt;/b&gt;" style="html=1;outlineConnect=0;whiteSpace=wrap;fillColor=#99ffff;shape=mxgraph.archimate3.application;appType=proc;archiType=rounded;" parent="1" vertex="1">
          <mxGeometry x="259" y="1350" width="164" height="70" as="geometry" />
        </mxCell>
        <mxCell id="JKtVsh7TqP8X3cLODxb8-225" style="edgeStyle=orthogonalEdgeStyle;curved=1;sketch=0;orthogonalLoop=1;jettySize=auto;html=1;strokeWidth=1;" parent="1" source="JKtVsh7TqP8X3cLODxb8-78" target="JKtVsh7TqP8X3cLODxb8-87" edge="1">
          <mxGeometry relative="1" as="geometry">
            <Array as="points">
              <mxPoint x="280" y="1046" />
              <mxPoint x="280" y="1200" />
              <mxPoint x="540" y="1200" />
              <mxPoint x="540" y="1565" />
            </Array>
          </mxGeometry>
        </mxCell>
        <mxCell id="JKtVsh7TqP8X3cLODxb8-226" style="edgeStyle=orthogonalEdgeStyle;curved=1;sketch=0;orthogonalLoop=1;jettySize=auto;html=1;strokeWidth=1;" parent="1" source="JKtVsh7TqP8X3cLODxb8-72" target="JKtVsh7TqP8X3cLODxb8-86" edge="1">
          <mxGeometry relative="1" as="geometry">
            <Array as="points">
              <mxPoint x="600" y="1050" />
            </Array>
          </mxGeometry>
        </mxCell>
        <mxCell id="JKtVsh7TqP8X3cLODxb8-205" value="&lt;span style=&quot;font-size: 14px&quot;&gt;&lt;b&gt;rsync&lt;/b&gt;&lt;/span&gt;" style="html=1;outlineConnect=0;whiteSpace=wrap;fillColor=#99ffff;shape=mxgraph.archimate3.application;appType=proc;archiType=rounded;" parent="1" vertex="1">
          <mxGeometry x="492" y="1350" width="150" height="70" as="geometry" />
        </mxCell>
        <mxCell id="JKtVsh7TqP8X3cLODxb8-232" style="edgeStyle=orthogonalEdgeStyle;curved=1;sketch=0;orthogonalLoop=1;jettySize=auto;html=1;entryX=0;entryY=0;entryDx=2.9;entryDy=2.9;entryPerimeter=0;strokeWidth=1;" parent="1" source="JKtVsh7TqP8X3cLODxb8-13" target="JKtVsh7TqP8X3cLODxb8-90" edge="1">
          <mxGeometry relative="1" as="geometry">
            <Array as="points">
              <mxPoint x="460" y="331" />
              <mxPoint x="460" y="430" />
              <mxPoint x="-20" y="430" />
              <mxPoint x="-20" y="1054" />
              <mxPoint x="-30" y="1054" />
              <mxPoint x="-30" y="1743" />
            </Array>
          </mxGeometry>
        </mxCell>
        <mxCell id="JKtVsh7TqP8X3cLODxb8-234" style="edgeStyle=orthogonalEdgeStyle;curved=1;sketch=0;orthogonalLoop=1;jettySize=auto;html=1;strokeWidth=1;" parent="1" source="JKtVsh7TqP8X3cLODxb8-81" target="JKtVsh7TqP8X3cLODxb8-88" edge="1">
          <mxGeometry relative="1" as="geometry">
            <Array as="points">
              <mxPoint x="610" y="332" />
              <mxPoint x="610" y="540" />
              <mxPoint x="1130" y="540" />
              <mxPoint x="1130" y="1565" />
            </Array>
          </mxGeometry>
        </mxCell>
      </root>
    </mxGraphModel>
  </diagram>
</mxfile>
